<?xml version="1.0" encoding="UTF-8"?>
<svg id="Layer_1" data-name="Layer 1" xmlns="http://www.w3.org/2000/svg" viewBox="0 0 1000 1000">
  <defs>
    <style>
      .cls-1 {
        fill: #fff;
      }

      .cls-2 {
        fill: #475f1b;
      }

      .cls-3 {
        fill: none;
      }

      .cls-4 {
        fill: #4b5c26;
      }
    </style>
  </defs>
  <polygon class="cls-1" points="403.54 494.23 403.54 398.43 389.48 407.22 389.48 390.08 498.01 323.73 595.57 388.33 595.57 404.15 580.19 395.36 580.19 513.12 564.81 510.05 564.81 386.57 497.14 341.31 419.36 389.65 419.36 492.47 403.54 494.23"/>
  <polygon class="cls-1" points="482.9 494.23 478.02 494.23 478.02 385.91 437.77 405.24 437.77 493.64 432.88 493.64 432.88 402.17 482.9 378.15 482.9 494.23"/>
  <path class="cls-1" d="m550.49,506.48l-52.8-10.93v-134.19l52.8,31.56v113.55Zm-50.97-12.42l49.14,10.17v-110.26l-49.14-29.37v129.47Z"/>
  <rect class="cls-1" x="508.82" y="369.43" width="1.83" height="127.73"/>
  <rect class="cls-1" x="519.19" y="375.53" width="1.83" height="123.45"/>
  <rect class="cls-1" x="530.18" y="382.25" width="1.83" height="119.18"/>
  <rect class="cls-1" x="540.55" y="388.96" width="1.83" height="114.91"/>
  <rect class="cls-1" x="523.09" y="458.99" width="1.83" height="52.36" transform="translate(-63.82 890.68) rotate(-77.4)"/>
  <rect class="cls-1" x="523.17" y="443.46" width="1.83" height="53.04" transform="translate(-64.72 855.8) rotate(-75.12)"/>
  <rect class="cls-1" x="523.1" y="427.72" width="1.83" height="53.19" transform="translate(-64.54 821.19) rotate(-72.86)"/>
  <rect class="cls-1" x="523.1" y="411.48" width="1.83" height="54.02" transform="translate(-66.12 782.88) rotate(-70.19)"/>
  <rect class="cls-1" x="523.17" y="395.23" width="1.83" height="55.62" transform="translate(-73.36 733.99) rotate(-66.41)"/>
  <rect class="cls-1" x="523.24" y="379.48" width="1.83" height="56.79" transform="translate(-74.74 694.99) rotate(-63.5)"/>
  <rect class="cls-1" x="522.95" y="363.43" width="1.83" height="58.88" transform="translate(-74.55 658.72) rotate(-60.82)"/>
  <path class="cls-4" d="m296.76,546.3c44.39-35.01,108.38-46.04,163.64-39.5,31.87,3.92,62.34,15.3,93.66,21.17,14.52,2.74,29.59,3.78,44.35,3.64,25.86-.15,51.78-4.02,76.6-11.25,10.45-3.09,20.88-6.84,31.07-10.97-7.24,5.11-14.91,9.68-22.86,13.77-14.91,7.64-31.02,13.45-47.32,17.47-2.49.55-5.81,1.34-8.26,1.87-1.02.18-7.17,1.33-8.34,1.53,0,0-6.72,1.01-6.72,1.01-1.82.32-4.87.59-6.75.81-6.43.74-13.86,1.18-20.37,1.35-5.61.11-11.53.03-17.15-.27-7.77-.54-16.17-1.57-23.84-2.93-30.74-5.41-60.31-16.3-91.2-20.39-39.94-5.11-80.97-2.7-119.77,8.5,0,0-6.22,1.95-6.22,1.95-1.04.33-2.09.64-3.12.99-3.35,1.2-6.23,2.26-9.24,3.34,0,0-6.08,2.5-6.08,2.5l-3.06,1.24c-2.56,1.23-6.35,2.94-9.03,4.15h0Z"/>
  <g>
    <path class="cls-3" d="m652.45,457.53c.53.22,1.05.44,1.59.66.16-.17.3-.32.47-.52-.71-.28-1.39-.18-2.06-.15Z"/>
    <path class="cls-3" d="m646.66,458.26c.09.3.18.6.28.89.05.15.18.21.33.22,1.34.12,2.6.51,3.84,1.04.26-.09.5-.23.77-.43-.51-.48-1.11-.75-1.7-1.04.89-.09,1.73.09,2.56.36.18-.05.29-.16.37-.31-1.47-.99-4.47-1.79-6.44-.73Z"/>
    <path class="cls-3" d="m645.58,460.39c1.08.26,2.16.5,3.21.88.31.11.53-.12.85-.28-1.34-.63-2.67-.81-4.06-.6Z"/>
    <path class="cls-3" d="m652.2,454.1c1.71-.31,3.43-.49,5.15-.35q.25-.25.35-.61c-1.91-.03-3.8-.13-5.49.96Z"/>
    <path class="cls-3" d="m648.84,456.74c2.22-.06,4.4-.47,6.58-.14q.23-.18.36-.46c-.61-.36-1.31-.45-1.98-.7.88-.19,1.76-.29,2.62-.19.19-.13.26-.27.32-.42-1.51-.72-6.85.57-7.9,1.91Z"/>
    <path class="cls-3" d="m638.11,462.08c1.83.08,3.58.16,5.33.22,1.09.04,2.18,0,3.25-.27.11-.03.24-.02.34-.16-2.99-1.18-5.93-.7-8.91.22Z"/>
    <path class="cls-3" d="m652.12,440.66c-1.63.21-2.82,1.11-3.66,2.49,1.43-1.02,2.96-1.83,4.7-2.19-.24-.22-.62-.35-1.04-.3Z"/>
    <path class="cls-3" d="m649.97,454.8c.71-.42,1.27-.97,1.72-1.66-.25-.19-.53-.14-.78-.18-.42-.07-.85-.1-1.27-.15-.29-.04-.54.08-.79.18-.53.2-1.04.46-1.53.75-.45.27-.47.78-.67,1.28,1.17.02,2.25.41,3.31-.22Z"/>
    <path class="cls-3" d="m653.82,452.27c1.49-.17,2.97-.35,4.46-.24.16-.14.25-.29.32-.51-.41-.3-.89-.4-1.37-.57.56-.24,1.16-.16,1.72-.2.18-.19.26-.39.38-.61-.37-.19-.76-.12-1.18-.25.53-.38,1.13-.52,1.6-.9-2.23.62-4.15,1.79-5.92,3.27Z"/>
    <path class="cls-3" d="m616.43,461.73c-.2.48-.37,1-.5,1.53.13.12.23.21.34.31.18-.44.34-.87.53-1.29.45-.98,1.04-1.87,1.97-2.46.45-.28.94-.47,1.48-.34.58.14.88.61.78,1.21-.06.37-.23.69-.4,1.02-.18.35-.37.71-.58,1.11.37-.06.61-.2.78-.46.33-.5.61-1.02.8-1.58.36-1.06-.25-1.94-1.37-2.01-.71-.04-1.33.2-1.91.57-.81.52-1.35,1.2-1.74,1.97l.13.18-.32.23Z"/>
    <path class="cls-3" d="m619.94,460.51c-.2-.19-.45-.11-.67,0-.35.16-.62.43-.85.73-.93,1.21-1.44,2.6-1.68,4.09-.02.11-.05.23.06.35.33-.08.57-.31.78-.56.75-.88,1.27-1.91,1.84-2.91.2-.35.38-.71.54-1.08.09-.2.17-.45-.02-.63Z"/>
    <path class="cls-3" d="m645.87,459.34c-.09-.42-.22-.73-.41-1.03-.82-.09-1.61-.04-2.4.17-2.56.67-4.91,1.8-7.18,3.14-.16.09-.31.19-.46.3,1.7-.6,3.42-1.12,5.16-1.56,1.73-.44,3.49-.71,5.29-1Z"/>
    <path class="cls-3" d="m644.62,457.11c1.34.48,2.42.06,3.34-1.02-.53-.17-1.05-.13-1.56-.23-.6.42-1.2.84-1.79,1.24Z"/>
    <path class="cls-3" d="m644.6,444.09c-2.48,1.35-9.15,8.57-11.64,12.62,4.3-3.88,8.39-7.87,11.64-12.62Z"/>
    <path class="cls-3" d="m627.67,458.84c-1.45.02-2.93.92-3.36,2.04,1.06-.93,2.24-1.42,3.62-1.43,1.35-.01,2.59.32,3.7,1.1-.92-1.5-2.39-1.73-3.96-1.7Z"/>
    <path class="cls-3" d="m644.73,455.89c.56-.35.88-.86,1.03-1.55-.15-.04-.27.05-.4.1-1.96.78-3.78,1.82-5.55,2.94-2.61,1.66-5.18,3.38-7.64,5.25-.12.09-.23.19-.35.29.96-.45,1.83-1.01,2.71-1.57,2.17-1.37,4.45-2.52,6.75-3.65,1.17-.57,2.35-1.12,3.46-1.82Z"/>
    <path class="cls-3" d="m633.99,457.04c1.26-.89,2.42-1.75,3.76-2.36.03-.01.07,0,.1,0,.07.07,0,.14,0,.24.69-.71,1.39-1.37,1.98-2.13-1.41.37-4.14,2.37-5.84,4.25Z"/>
    <path class="cls-3" d="m635.44,457.42c-.9.3-4.42,3.95-4.91,5.09.8-.49,4.24-4.06,4.91-5.09Z"/>
    <path class="cls-3" d="m635.8,458.7s.08.09.11.13c2.28-1.68,4.68-3.18,6.96-4.86,2.25-1.65,4.1-3.68,5.58-6.06-1.2.69-2.29,1.55-3.39,2.39-1.1.84-2.15,1.75-3.19,2.66-1.06.91-2.07,1.88-3.07,2.86-.99.97-2.01,1.91-3.01,2.87Z"/>
    <path class="cls-3" d="m659.5,445.01c-.43-.41-.9-.56-1.39-.59-1.94-.15-3.7.36-5.29,1.47-.43.3-.74.72-1.01,1.19,1.14-.74,2.34-1.33,3.65-1.7,1.3-.37,2.63-.42,4.05-.36Z"/>
    <path class="cls-3" d="m654.35,446.83c-2.41,1.1-4.34,2.73-5.67,5.14.46-.1.79-.2,1.05-.56,1.91-2.63,4.45-4.26,7.68-4.79.83-.14,1.67-.15,2.51-.13.09,0,.19.02.28-.05.08-.1.05-.22,0-.4-2.01-.29-3.98-.07-5.85.79Z"/>
    <path class="cls-3" d="m645.23,453.5c.67-.21,1.3-.49,1.91-.82.15-.08.26-.21.33-.37.69-1.53,1.72-2.86,2.58-4.29.29-.49.58-.97.84-1.49-.3.16-.64.25-.81.59-.75,1.52-1.78,2.85-2.84,4.16-.62.77-1.32,1.48-2.01,2.22Z"/>
    <path class="cls-3" d="m657.19,447.63c-2.71.63-4.97,1.97-6.69,4.31.53.06.95.11,1.37.17.23.03.41-.07.58-.2.77-.59,1.54-1.19,2.34-1.75,1.61-1.12,3.33-2.01,5.25-2.32.14-.11.16-.2.08-.36-.97-.1-1.97-.08-2.94.14Z"/>
    <path class="cls-1" d="m657.65,477.43h0s-.24-.42-.24-.42c-.06-.12-.13-.24-.2-.35-.24-.42-.51-.85-.81-1.27-.41-.58-.86-1.14-1.31-1.68-.1-.12-.2-.24-.29-.34-.11-.13-.23-.27-.34-.4-.36-.4-.7-.77-1.03-1.1-.09-.1-.18-.19-.27-.27-.96-.96-1.67-1.59-1.67-1.59-.1-.09-.2-.16-.3-.24-.73-.61-1.44-1.15-2.13-1.61-.9-.6-1.76-1.07-2.57-1.46-.89-.42-1.73-.74-2.48-.96-1.11-.33-2.05-.47-2.77-.52-.56-.04-.99-.03-1.28-.01-.25.02-.39.04-.39.04l-.18.03-.27.05s0,0,0,0c-.06.01-.12.02-.19.03-.96.16-1.61.34-1.86,1.24-.15.53-.54,1-1.2,1.43-.2.13-.4.22-.64.29l-1.66,4.74.08.17c.41.82.79,1.6,1.5,2.09.01,0,.03-.02.04-.03.44-.33.87-.54,1.28-.65.2-.05.41-.09.6-.09.18,0,.35.02.52.06.54.13,1.08.46,1.67,1.01.94.9,1.76,1.99,2.66,3.54.15.26.36.44.66.65,1.26.9,2.56,1.69,3.87,2.34.44.22.87.42,1.3.61,0,0,0,0,0,0,.02-.03.05-.06.07-.1.07-.09.15-.19.22-.29.45-.63.85-1.33,1.1-2.07.07-.2.12-.41.17-.62.05-.27.09-.54.1-.81,0-.12-.01-.24-.03-.36-.02-.16-.06-.32-.11-.47-.06-.21-.15-.41-.26-.6.14.14.25.3.35.46.07.12.13.24.18.37.13.3.22.61.27.94.02.15.04.3.05.45.04.82-.13,1.68-.37,2.43-.1.33-.22.65-.36.97-.04.09-.08.17-.12.26,0,0,0,0,0,0,.11.04.24.09.36.13.07.03.15.05.22.08.24.08.49.17.76.26l.11.07h.06s0,0,0,0c.01,0,.02,0,.03.01.25.08.52.16.79.24.19.06.37.11.57.17h.1c.84.21,1.68.37,2.52.48.69.09,1.35.13,1.98.13.96,0,1.88-.1,2.74-.31.27-1.29-.58-5.06-1.67-7.12Z"/>
    <path class="cls-2" d="m656.57,484.14c-.6,0-1.23-.04-1.89-.13-.79-.1-1.59-.25-2.44-.47l-.08-.02h-.09c-.09-.03-.47-.14-.47-.14-.27-.08-.53-.16-.78-.23l-.11-.03h0s-.08-.03-.08-.03c-.21-.07-.42-.14-.62-.21.08-.21.15-.41.21-.6.3-.96.43-1.86.4-2.67,0-.17-.03-.35-.06-.52-.06-.39-.17-.77-.33-1.13-.08-.17-.14-.32-.23-.45-.14-.22-.28-.41-.44-.57l-1.14.86c.08.13.14.28.19.45.04.12.07.24.08.36.01.09.02.18.02.28,0,.18-.03.39-.08.66-.04.18-.08.36-.14.53-.2.58-.51,1.19-.95,1.8-.25-.12-.5-.24-.76-.36-1.28-.64-2.55-1.41-3.78-2.28-.26-.19-.37-.29-.45-.43-.94-1.61-1.8-2.75-2.78-3.7-.68-.65-1.33-1.04-2-1.19-.23-.05-.46-.08-.69-.08-.24,0-.49.04-.79.11-.37.1-.72.25-1.08.47-.34-.37-.59-.86-.86-1.41l1.44-4.13c.16-.07.32-.15.47-.25.81-.53,1.3-1.13,1.5-1.83.09-.32.2-.47.66-.6l1.28-.25h0s.12-.02.31-.03c.12,0,.27-.01.45-.01.21,0,.45,0,.72.03.84.06,1.72.23,2.62.49.76.23,1.56.54,2.38.92.87.41,1.68.87,2.48,1.41.65.44,1.35.96,2.06,1.56,0,0,.24.19.29.24,0,0,.7.62,1.63,1.55l.26.27c.32.33.66.69,1.01,1.08.06.07.33.39.33.39.09.1.18.21.28.32.55.65.94,1.15,1.28,1.64.29.41.55.82.77,1.21l.07.11c.04.07.08.15.12.22l.27.48c.91,1.75,1.62,4.75,1.61,6.13-.66.12-1.36.19-2.08.19Z"/>
    <path class="cls-2" d="m622.71,458.77l-.69.84.05-1.08c.03-.59-.05-1.02-.26-1.33.02.25-.01.5-.14.78l-.35.74-.31-.76c-.13-.32-.29-.65-.56-.88-.08-.07-.15-.12-.23-.17.04.14.05.29.03.47l-.06.51-.46-.22c-.3-.15-.59-.22-.88-.22-.03,0-.06,0-.1,0,.02.02.05.04.07.07l.31.32-.38.24c-.15.09-.3.17-.45.24-.2.1-.39.2-.56.33,0,0-.01,0-.01,0l-.48.62-.17.21-.46.59-1.11,1.43-.2.26c-.06.26-.14.5-.25.74-.04.09-.06.18-.1.27-.64,1.57-.93,3.17-.83,4.76.04.66.17,1.28.39,1.86.17-.11.34-.24.48-.36.17-.15.4-.31.75-.31,0,0,.23,0,.23,0,1.11,0,2.16-.29,3.19-.89l1.09-.72,2.95-6.99c.08-1.29.04-1.88-.13-2.21-.06.27-.17.56-.41.85Zm-4.85,6.58c-.23.27-.52.56-.97.67l-.21.05-.14-.16c-.22-.24-.17-.5-.15-.65.27-1.68.84-3.07,1.75-4.25.31-.41.63-.68.99-.84.14-.06.33-.14.53-.14s.38.07.53.21c.41.38.18.88.11,1.04-.17.39-.36.76-.56,1.1l-.27.48c-.47.84-.96,1.71-1.61,2.48Zm4.12-4.44c-.18.55-.46,1.09-.84,1.67-.23.34-.55.54-1.02.62l-.7.11.9-1.74c.15-.29.31-.6.37-.92.07-.41-.11-.7-.51-.8-.09-.02-.19-.03-.28-.03-.28,0-.58.1-.93.33-.76.48-1.32,1.19-1.84,2.31-.13.28-.24.57-.36.86l-.36.89-.88-.79.05-.21c.08-.34.18-.7.31-1.07.13-.37.29-.75.49-1.12.15-.28.34-.55.54-.81.14-.17.29-.34.46-.5.23-.23.49-.44.78-.63.66-.42,1.29-.63,1.94-.63.06,0,.12,0,.18,0,.66.04,1.2.32,1.52.8.32.47.38,1.07.17,1.69Z"/>
    <g>
      <path class="cls-1" d="m660.18,443.48c-.81-.57-1.73-.74-2.7-.7-1.8.07-3.47.65-5.1,1.34-2.68,1.14-5.13,2.66-7.45,4.42-1.25.95-2.46,1.93-3.7,2.9-.12-.09.03-.22-.1-.34-.44.18-.91.37-1.39.57-.01-.01-.03-.02-.04-.04.39-.43.77-.87,1.17-1.3,1.91-2.03,3.6-4.22,5.19-6.5.51-.73,1.03-1.44,1.89-1.87-.78,1.42-1.67,2.73-2.56,4.04-.9,1.32-2.13,2.34-3.17,3.55.19.12.28,0,.36-.06,1.08-.75,2.11-1.57,3.23-2.27.18-.11.26-.3.38-.47,1.83-2.6,4.32-4.19,7.39-4.94.08-.02.16-.03.25-.04.07,0,.14,0,.2.01.12.09.1.2.06.34-2.15.6-4.08,1.65-5.73,3.2,2.42-1.23,4.84-2.43,7.54-2.93.03-.33-.06-.58-.15-.83-.62-1.74-2.09-2.58-3.9-2.44-1.9.16-3.58.97-5.21,1.88-2.7,1.51-5.09,3.43-7.27,5.61-2.2,2.19-4.14,4.6-5.97,7.1-.99,1.34-1.92,2.71-2.81,4.11-.1.16-.21.31-.33.48-2.64-.92-4.88-.38-6.65,1.91.13-2.07,0-2.59-.74-3.03-.05.45-.05.91-.42,1.36.05-1.01-.17-1.79-1.19-2.2.15.53.34.97.1,1.48-.16-.4-.35-.75-.66-1.02-.31-.27-.66-.44-1.14-.48.19.35.39.62.35,1-.71-.35-1.41-.34-2.16.04.28.19.61.15.84.39-.32.2-.65.32-.97.55l-3.14-6.87-.65.3,3.28,7.17-.34.44-6.51-2.66-.27.66,6.33,2.59-1.26,1.62-.04.04c-.03.12-.06.24-.09.36l-4.89,3.49.42.58,4.01-2.86c-.5,1.41-.74,2.88-.64,4.4.04.67.17,1.34.42,1.98.04.11.08.23.22.32.3-.12.57-.33.83-.55.15-.13.3-.23.51-.22,1.34.05,2.53-.31,3.63-.94l1.18-.78c-.05.89-.12,1.75.06,2.64.21-.11.28-.33.47-.43l.05.56c-.03.27-.03.53.07.8l.04.39-5.77.25-.14.27c-.05.09-4.8,8.99-9.38,10.36l.31,1.03c4.59-1.36,9.01-9.03,9.88-10.61l6.29-.27-.1-1.05c.07-.08.14-.16.23-.22.03.41.04.8-.04,1.18.55.17,1.08.37,1.55.64.05-.1.09-.22.16-.38.17.32.35.61.57.87.2.15.38.32.55.5.1.07.21.15.33.21-.01-.3-.12-.55-.04-.85.39.54.74,1.08,1.43,1.34-.04-.31-.18-.56-.07-.86.17.15.31.33.47.5l1.03,2.2-4.24,5.65v9.49h1.07v-9.13l4.41-5.88-1.13-2.41c.07.02.14.05.21.07.01.14.02.28.02.41.6-.15,1.22-.25,1.84-.3,0-.04.03-.08.05-.11,1,2.15,2.84,5.67,5.08,7.9l.76-.76c-1.94-1.94-3.62-5.01-4.63-7.11.3-.01.6-.02.89-.03.11-.03.22-.06.34-.08-.07-.32-.08-.67,0-1.05.5.99.93,2.02,1.91,2.62.15,0,.24-.07.32-.13.42-.31.81-.5,1.18-.59l2.94,8.35,7.55,8.21.79-.73-7.4-8.05-2.73-7.73c.41.15.83.43,1.27.85,1.05,1.01,1.87,2.21,2.6,3.46.2.34.46.55.76.77,1.25.89,2.55,1.69,3.92,2.37,1.28.64,2.59,1.19,3.94,1.63l.18.11.12-.02c1.3.41,2.63.71,3.99.89,1.64.21,3.29.2,4.91-.2.06-.01.11-.04.16-.06.48-1.36-.6-5.82-1.84-7.9l-.04-.08c-1.04-2-2.87-4.04-4.23-5.43-.28-.41-1.15-1.22-1.74-1.66,0,0-.02-.02-.03-.02-4.95-4.28-9.16-4.91-11.23-4.91-.34,0-.59.02-.76.04-.13.01-.21.03-.22.03,0,0,0,0,0,0l-.17.03h0c-.15.03-.31.06-.46.08-.95.16-1.83.36-2.14,1.5-.14.52-.58.92-1.05,1.22-.18.12-.38.22-.72.28,1.27-1.39,1.39-2.86.59-4.5.58,0,1.1-.02,1.61,0,1.37.07,2.74.18,4.12.26.99.06,1.99.11,2.99.08,4.61-.14,8.52-1.83,11.61-5.31,1.89-2.13,3.27-4.58,4.55-7.11.53-1.04,1.06-2.08,1.33-3.21.43-1.8-.02-3.63-1.58-4.72Zm-8.06-2.82c.42-.06.8.07,1.04.3-1.75.36-3.27,1.17-4.7,2.19.84-1.38,2.03-2.28,3.66-2.49Zm-31.83,26.47l-1.09.72c-1.03.59-2.08.89-3.19.89,0,0-.23,0-.23,0-.36,0-.58.15-.75.31-.14.13-.31.26-.48.36-.22-.58-.35-1.2-.39-1.86-.1-1.59.18-3.19.83-4.76.04-.09.06-.18.1-.27.11-.24.19-.49.25-.74l.2-.26,1.11-1.43.46-.59.17-.21.48-.62s.01,0,.01,0c.18-.13.37-.23.56-.33.15-.08.3-.15.45-.24l.38-.24-.31-.32s-.05-.05-.07-.07c.03,0,.06,0,.1,0,.29,0,.58.07.88.22l.46.22.06-.51c.02-.17,0-.33-.03-.47.08.05.16.11.23.17.27.23.43.56.56.88l.31.76.35-.74c.13-.27.16-.53.14-.78.21.31.29.73.26,1.33l-.05,1.08.69-.84c.24-.29.35-.57.41-.85.17.34.21.93.13,2.21l-2.95,6.99Zm14.95,1.17c.24-.06.44-.15.64-.29.66-.43,1.05-.9,1.2-1.43.25-.9.9-1.08,1.86-1.24.06-.01.12-.02.19-.03,0,0,0,0,0,0l.27-.05.18-.03s.14-.02.39-.04c.28-.02.71-.03,1.28.01.73.05,1.67.19,2.77.52.76.22,1.59.54,2.48.96.81.39,1.67.86,2.57,1.46.69.46,1.4,1,2.13,1.61.1.08.2.15.3.24,0,0,.71.62,1.67,1.59.09.09.18.18.27.27.33.34.68.71,1.03,1.1.67.74,1.35,1.57,1.95,2.42.3.42.57.85.81,1.27.07.12.14.24.2.35l.24.42h0c1.09,2.05,1.94,5.83,1.67,7.12-.86.2-1.79.31-2.74.31-.63,0-1.3-.05-1.98-.13-.84-.11-1.68-.27-2.52-.48h-.1c-.2-.06-.38-.11-.57-.17-.28-.08-.55-.16-.79-.24-.01,0-.02,0-.03-.01h0s-.06,0-.06,0l-.11-.07c-.27-.09-.52-.17-.76-.26-.07-.03-.15-.06-.22-.08-.12-.04-.25-.09-.36-.13,0,0,0,0,0,0,.04-.09.08-.17.12-.26.13-.32.25-.64.36-.97.23-.75.4-1.6.37-2.43,0-.15-.03-.3-.05-.45-.05-.33-.14-.64-.27-.94-.06-.12-.11-.25-.18-.37-.1-.16-.22-.32-.35-.46.11.19.19.4.26.6.05.16.09.31.11.47.02.12.03.24.03.36,0,.27-.04.54-.1.81-.04.21-.1.42-.17.62-.25.74-.65,1.44-1.1,2.07-.07.1-.14.19-.22.29-.02.03-.05.07-.07.1,0,0,0,0,0,0-.43-.19-.87-.39-1.3-.61-1.32-.65-2.62-1.44-3.87-2.34-.3-.21-.5-.39-.66-.65-.9-1.55-1.72-2.64-2.66-3.54-.58-.56-1.12-.89-1.67-1.01-.17-.04-.35-.06-.52-.06-.2,0-.4.04-.6.09-.41.11-.83.31-1.28.65-.02.01-.03.02-.04.03-.71-.49-1.09-1.27-1.5-2.09l-.08-.17,1.66-4.74Zm17.57-22.41c1.59-1.1,3.36-1.62,5.29-1.47.49.04.96.19,1.39.59-1.42-.06-2.75,0-4.05.36-1.3.37-2.51.97-3.65,1.7.27-.46.58-.89,1.01-1.19Zm-1.92.64c-.26.52-.55,1.01-.84,1.49-.86,1.43-1.88,2.76-2.58,4.29-.07.15-.18.28-.33.37-.61.34-1.25.61-1.91.82.68-.74,1.38-1.44,2.01-2.22,1.06-1.31,2.08-2.64,2.84-4.16.17-.34.51-.43.81-.59Zm-4.22,8.49c.2-.5.22-1.01.67-1.28.49-.29,1-.55,1.53-.75.25-.09.5-.21.79-.18.42.05.85.08,1.27.15.25.04.52,0,.78.18-.46.69-1.01,1.24-1.72,1.66-1.06.63-2.14.24-3.31.22Zm1.3,1.08c-.93,1.07-2,1.5-3.34,1.02.58-.41,1.18-.82,1.79-1.24.51.09,1.03.06,1.56.23Zm-6.09-3.12c1.05-.91,2.09-1.82,3.19-2.66,1.1-.84,2.19-1.69,3.39-2.39-1.48,2.37-3.33,4.41-5.58,6.06-2.28,1.67-4.69,3.17-6.96,4.86-.04-.04-.08-.09-.11-.13,1-.96,2.02-1.9,3.01-2.87,1-.98,2.01-1.95,3.07-2.86Zm-2.04-.19c-.59.76-1.29,1.42-1.98,2.13,0-.11.07-.17,0-.24-.03,0-.07,0-.1,0-1.33.6-2.5,1.47-3.76,2.36,1.7-1.88,4.43-3.88,5.84-4.25Zm-4.4,4.64c-.67,1.03-4.11,4.61-4.91,5.09.48-1.14,4-4.8,4.91-5.09Zm9.17-13.33c-3.25,4.75-7.33,8.74-11.64,12.62,2.49-4.05,9.16-11.26,11.64-12.62Zm-16.68,15.35c-1.38.01-2.56.5-3.62,1.43.43-1.12,1.91-2.02,3.36-2.04,1.57-.02,3.04.21,3.96,1.7-1.11-.79-2.35-1.11-3.7-1.1Zm6.59,1.92c-.88.56-1.75,1.12-2.71,1.57.12-.1.23-.2.35-.29,2.47-1.87,5.03-3.59,7.64-5.25,1.77-1.12,3.59-2.17,5.55-2.94.13-.05.25-.14.4-.1-.15.69-.47,1.2-1.03,1.55-1.11.69-2.29,1.24-3.46,1.82-2.3,1.13-4.58,2.28-6.75,3.65Zm.9.55c.15-.11.31-.21.46-.3,2.27-1.34,4.62-2.47,7.18-3.14.79-.21,1.58-.26,2.4-.17.19.3.32.61.41,1.03-1.8.29-3.56.57-5.29,1-1.74.44-3.46.96-5.16,1.56Zm11.27.11c-1.07.28-2.16.31-3.25.27-1.75-.06-3.5-.14-5.33-.22,2.99-.92,5.92-1.39,8.91-.22-.1.14-.23.13-.34.16Zm2.11-.75c-1.05-.38-2.13-.62-3.21-.88,1.39-.21,2.72-.02,4.06.6-.32.16-.53.39-.85.28Zm3.93-1.97c-.82-.26-1.67-.45-2.56-.36.6.29,1.19.56,1.7,1.04-.26.2-.5.34-.77.43-1.24-.53-2.5-.92-3.84-1.04-.15-.01-.28-.07-.33-.22-.1-.29-.18-.58-.28-.89,1.97-1.06,4.98-.26,6.44.73-.08.15-.19.26-.37.31Zm1.31-1.11c-.54-.22-1.07-.44-1.59-.66.68-.04,1.35-.13,2.06.15-.18.19-.31.34-.47.52Zm2.37-2.95c-.85-.1-1.73,0-2.62.19.66.24,1.37.34,1.98.7q-.13.28-.36.46c-2.18-.33-4.36.08-6.58.14,1.05-1.34,6.39-2.62,7.9-1.91-.07.15-.14.29-.32.42Zm.93-1.51c-1.72-.14-3.44.05-5.15.35,1.69-1.08,3.59-.98,5.49-.96q-.1.36-.35.61Zm1.97-3.6c-.11.22-.2.42-.38.61-.56.04-1.16-.04-1.72.2.47.17.96.27,1.37.57-.06.21-.16.37-.32.51-1.49-.11-2.97.07-4.46.24,1.76-1.48,3.69-2.65,5.92-3.27-.47.37-1.07.51-1.6.9.42.13.81.06,1.18.25Zm.73-2.3c-1.92.31-3.64,1.2-5.25,2.32-.8.55-1.56,1.16-2.34,1.75-.18.13-.35.24-.58.2-.42-.06-.84-.1-1.37-.17,1.72-2.34,3.98-3.68,6.69-4.31.97-.22,1.96-.24,2.94-.14.07.15.05.25-.08.36Zm.15-1.4c-.09.07-.19.05-.28.05-.84-.01-1.67,0-2.51.13-3.23.53-5.77,2.16-7.68,4.79-.26.36-.59.46-1.05.56,1.32-2.42,3.26-4.04,5.67-5.14,1.87-.86,3.84-1.07,5.85-.79.05.18.07.3,0,.4Z"/>
      <path class="cls-1" d="m619.73,462.39c.2-.35.38-.72.56-1.1.07-.16.3-.66-.11-1.04-.15-.14-.33-.21-.53-.21s-.39.07-.53.14c-.36.16-.68.43-.99.84-.91,1.18-1.48,2.58-1.75,4.25-.03.15-.07.41.15.65l.14.16.21-.05c.45-.11.74-.4.97-.67.65-.77,1.14-1.64,1.61-2.48l.27-.48Zm-2.15,2.73c-.21.25-.45.48-.78.56-.11-.12-.08-.24-.06-.35.24-1.5.75-2.88,1.68-4.09.23-.3.5-.57.85-.73.22-.1.47-.18.67,0,.2.18.12.43.02.63-.17.37-.35.73-.54,1.08-.57,1-1.09,2.02-1.84,2.91Z"/>
      <path class="cls-1" d="m620.29,458.42c-.06,0-.12,0-.18,0-.64,0-1.28.21-1.94.63-.3.19-.55.41-.78.63-.17.16-.32.33-.46.5-.21.26-.39.53-.54.81-.2.37-.36.75-.49,1.12-.13.37-.23.73-.31,1.07l-.05.21.88.79.36-.89c.12-.29.23-.58.36-.86.52-1.12,1.08-1.83,1.84-2.31.35-.22.65-.33.93-.33.09,0,.19.01.28.03.39.1.58.39.51.8-.06.32-.21.62-.37.92l-.9,1.74.7-.11c.47-.08.79-.27,1.02-.62.38-.57.65-1.12.84-1.67.21-.62.15-1.22-.17-1.69-.32-.47-.86-.76-1.52-.8Zm1.35,2.37c-.19.57-.47,1.09-.8,1.58-.17.26-.41.4-.78.46.21-.4.39-.76.58-1.11.17-.33.34-.65.4-1.02.1-.59-.19-1.06-.78-1.21-.55-.13-1.03.05-1.48.34-.94.59-1.52,1.48-1.97,2.46-.19.42-.35.85-.53,1.29-.11-.1-.21-.19-.34-.31.13-.54.29-1.05.5-1.53l.32-.23-.13-.18c.39-.78.93-1.46,1.74-1.97.58-.37,1.2-.61,1.91-.57,1.12.07,1.72.95,1.37,2.01Z"/>
    </g>
  </g>
  <g>
    <path class="cls-1" d="m179.3,623.03h-9.18l-14.93-16.96h-10.37v16.96h-7.85v-49.14c7.64,0,15.21.07,22.85.07,11.36,0,17.31,7.78,17.31,16.05,0,7.01-3.64,13.88-13.32,15.28l14.65,16.33.84,1.4Zm-34.49-41.92v17.81h14.93c6.52,0,9.39-4.14,9.39-8.76s-2.87-9.04-9.32-9.04h-15Z"/>
    <path class="cls-1" d="m261.32,598.7c0,13.25-8.06,25.38-25.1,25.38s-25.1-12.41-25.1-25.31c0-14.93,10.45-25.73,25.24-25.73,16.75.07,24.96,12.41,24.96,25.66Zm-25.1,18.16c12.2,0,17.31-8.62,17.31-18.02s-5.19-18.44-17.17-18.65c-11.36,0-17.45,7.92-17.45,18.65.14,8.69,5.19,18.02,17.31,18.02Z"/>
    <path class="cls-1" d="m326.58,584.82c-2.31-3.36-7.01-5.4-12.13-5.47-6.59,0-11.36,2.73-11.36,7.43s5.47,6.1,11.92,7.01c10.09,1.4,19.7,4.21,19.7,15.21-.07,11.01-10.09,15.14-20.33,15.14-9.39,0-16.61-2.87-21.1-11.15l5.89-3.93c3.5,5.96,9.6,8.06,15.28,8.06s12.41-1.96,12.41-8.13c0-5.33-5.68-7.15-12.55-8.06-9.74-1.33-19-3.79-19-14.3-.07-10.16,10.09-14.09,18.93-14.09,7.08,0,14.16,1.68,18.3,8.27l-5.96,4Z"/>
    <path class="cls-1" d="m406.42,623.03h-36.24v-49.07h36.03v7.64h-28.18v13.25h27.06v7.29h-27.06v13.18h28.39v7.71Z"/>
    <path class="cls-1" d="m477.01,608.87v-34.91h7.85v49.07h-5.96l-27.83-34.63v34.63h-7.92v-49.07h6.03l27.83,34.91Z"/>
    <path class="cls-1" d="m553.14,584.82c-2.31-3.36-7.01-5.4-12.13-5.47-6.59,0-11.36,2.73-11.36,7.43s5.47,6.1,11.92,7.01c10.09,1.4,19.7,4.21,19.7,15.21-.07,11.01-10.09,15.14-20.33,15.14-9.39,0-16.61-2.87-21.1-11.15l5.89-3.93c3.5,5.96,9.6,8.06,15.28,8.06s12.41-1.96,12.41-8.13c0-5.33-5.68-7.15-12.55-8.06-9.74-1.33-19-3.79-19-14.3-.07-10.16,10.09-14.09,18.93-14.09,7.08,0,14.16,1.68,18.3,8.27l-5.96,4Z"/>
    <path class="cls-1" d="m607.88,581.04h-16.12v-7.08h40.1v7.08h-16.05v41.99h-7.92v-41.99Z"/>
    <path class="cls-1" d="m711.63,598.7c0,13.25-8.06,25.38-25.1,25.38s-25.1-12.41-25.1-25.31c0-14.93,10.45-25.73,25.24-25.73,16.75.07,24.96,12.41,24.96,25.66Zm-25.1,18.16c12.2,0,17.31-8.62,17.31-18.02s-5.19-18.44-17.17-18.65c-11.36,0-17.45,7.92-17.45,18.65.14,8.69,5.19,18.02,17.31,18.02Z"/>
    <path class="cls-1" d="m788.88,616.72c-5.05,4.98-11.57,7.29-18.44,7.29-17.81,0-25.8-12.27-25.87-25.17-.07-12.9,8.34-25.73,25.87-25.73,6.59,0,12.97,2.45,17.95,7.43l-5.26,5.05c-3.51-3.44-8.13-5.05-12.69-5.05-12.48,0-18.16,9.18-18.09,18.23.07,8.97,5.4,17.88,18.09,17.88,4.56,0,9.6-1.89,13.04-5.33l5.4,5.4Z"/>
    <path class="cls-1" d="m861.08,574.24l-22.5,23.41,24.47,24.89v.49h-9.81l-21.87-22.36v22.36h-7.85v-49.07h7.85v21.17l19.98-21.17h9.74v.28Z"/>
  </g>
  <g>
    <path class="cls-4" d="m278.64,675.75v-22.68h3.6v22.68h-3.6Z"/>
    <path class="cls-4" d="m315.26,669.2v-16.14h3.63v22.68h-2.75l-12.86-16.01v16.01h-3.66v-22.68h2.79l12.86,16.14Z"/>
    <path class="cls-4" d="m349.8,658.09c-1.07-1.56-3.24-2.5-5.61-2.53-3.05,0-5.25,1.26-5.25,3.43s2.53,2.82,5.51,3.24c4.67.65,9.1,1.94,9.1,7.03-.03,5.09-4.67,7-9.4,7-4.34,0-7.68-1.33-9.75-5.15l2.72-1.81c1.62,2.75,4.44,3.73,7.06,3.73s5.74-.91,5.74-3.76c0-2.46-2.62-3.31-5.8-3.73-4.5-.62-8.78-1.75-8.78-6.61-.03-4.7,4.67-6.51,8.75-6.51,3.27,0,6.55.78,8.46,3.82l-2.75,1.85Z"/>
    <path class="cls-4" d="m386.06,675.75h-16.75v-22.68h16.65v3.53h-13.03v6.12h12.51v3.37h-12.51v6.09h13.12v3.56Z"/>
    <path class="cls-4" d="m419.76,653.2l-10.4,10.82,11.31,11.5v.23h-4.54l-10.11-10.34v10.34h-3.63v-22.68h3.63v9.79l9.23-9.79h4.5v.13Z"/>
    <path class="cls-4" d="m440.21,656.34h-7.45v-3.27h18.53v3.27h-7.42v19.41h-3.66v-19.41Z"/>
    <path class="cls-4" d="m483.11,675.75h-16.75v-22.68h16.65v3.53h-13.03v6.12h12.51v3.37h-12.51v6.09h13.12v3.56Z"/>
    <path class="cls-4" d="m515.09,669.2v-16.14h3.63v22.68h-2.75l-12.86-16.01v16.01h-3.66v-22.68h2.79l12.86,16.14Z"/>
    <path class="cls-4" d="m549.63,658.09c-1.07-1.56-3.24-2.5-5.61-2.53-3.05,0-5.25,1.26-5.25,3.43s2.53,2.82,5.51,3.24c4.67.65,9.1,1.94,9.1,7.03-.03,5.09-4.67,7-9.4,7-4.34,0-7.68-1.33-9.75-5.15l2.72-1.81c1.62,2.75,4.44,3.73,7.06,3.73s5.74-.91,5.74-3.76c0-2.46-2.62-3.31-5.8-3.73-4.5-.62-8.78-1.75-8.78-6.61-.03-4.7,4.67-6.51,8.75-6.51,3.27,0,6.55.78,8.46,3.82l-2.75,1.85Z"/>
    <path class="cls-4" d="m588.23,672.83c-2.33,2.3-5.35,3.37-8.52,3.37-8.23,0-11.92-5.67-11.96-11.63-.03-5.96,3.86-11.89,11.96-11.89,3.05,0,5.99,1.13,8.29,3.43l-2.43,2.33c-1.62-1.59-3.76-2.33-5.87-2.33-5.77,0-8.39,4.24-8.36,8.42.03,4.15,2.49,8.26,8.36,8.26,2.11,0,4.44-.88,6.03-2.46l2.5,2.49Z"/>
    <path class="cls-4" d="m619.21,675.75v-9.43h-11.99v9.43h-3.63v-22.68h3.63v9.88h11.99v-9.88h3.6v22.68h-3.6Z"/>
    <path class="cls-4" d="m659.13,653.1v13.25c0,6.68-4.41,10.01-9.88,9.82-5.05-.13-9.36-3.37-9.36-9.82v-13.25h3.6v13.25c0,4.12,2.4,6.35,5.77,6.48,3.63.19,6.29-2.17,6.29-6.48v-13.25h3.6Z"/>
    <path class="cls-4" d="m681.36,656.34h-7.45v-3.27h18.53v3.27h-7.42v19.41h-3.66v-19.41Z"/>
    <path class="cls-4" d="m706.54,653.07h16.56v1.65l-12.47,17.56h12.47v3.47h-17.59v-2.04l12.25-17.3h-11.21v-3.34Z"/>
  </g>
  <rect class="cls-4" x="181.16" y="661.17" width="72.85" height="5.29"/>
  <rect class="cls-4" x="745.91" y="661.17" width="72.85" height="5.29"/>
</svg>